#N canvas 1167 306 619 491 12;
#X obj 150 98 osc~ 333;
#X obj 148 145 *~;
#X obj 241 97 osc~ 1;
#X obj 148 192 dac~ 1;
#X msg 39 136 \; pd dsp 1;
#X obj 34 62 loadbang;
#X obj 146 34 midiin;
#X obj 148 70 + 333, f 6;
#X connect 0 0 1 0;
#X connect 1 0 3 0;
#X connect 2 0 1 1;
#X connect 5 0 4 0;
#X connect 6 0 7 0;
#X connect 7 0 0 0;
