#N canvas 320 79 449 251 12;
#X obj 24 23 cnv 19 390 160 empty empty empty 20 12 0 12 #ffe3c6 #404040 0;
#X floatatom 84 33 5 0 0 1 mul braid_\$1_mul_1_in braid_\$1_mul_1_out 0;
#X text 35 32 osc_1;
#X obj 227 33 hsl 162 19 -1 1 0 0 no_send braid_\$1_slider_1 empty -2 -10 0 12 #fcfcfc #000000 #000000 0 1;
#X floatatom 84 63 5 0 0 1 mul braid_\$1_mul_2_in braid_\$1_mul_2_out 0;
#X obj 227 63 hsl 162 19 -1 1 0 0 no_send braid_\$1_slider_2 empty -2 -10 0 12 #fcfcfc #000000 #000000 0 1;
#X floatatom 84 93 5 0 0 1 mul braid_\$1_mul_3_in braid_\$1_mul_3_out 0;
#X obj 227 93 hsl 162 19 -1 1 0 0 no_send braid_\$1_slider_3 empty -2 -10 0 12 #fcfcfc #000000 #000000 0 1;
#X floatatom 84 123 5 0 0 1 mul braid_\$1_mul_4_in braid_\$1_mul_4_out 0;
#X obj 227 123 hsl 162 19 -1 1 0 0 no_send braid_\$1_slider_4 empty -2 -10 0 12 #fcfcfc #000000 #000000 0 1;
#X text 35 62 osc_2;
#X text 35 92 osc_3;
#X text 35 122 osc_4;
#X obj 227 153 hsl 162 19 -1 1 0 0 no_send braid_\$1_output empty -2 -10 0 12 #fcfcfc #000000 #000000 0 1;
#X obj 84 153 bng 19 250 50 0 no_send braid_\$1_bang empty 0 -10 0 12 #fcfcfc #ffe3c6 #000000;
#X floatatom 154 33 5 0 0 1 add braid_\$1_add_1_in braid_\$1_add_1_out 0;
#X floatatom 154 63 5 0 0 1 add braid_\$1_add_2_in braid_\$1_add_2_out 0;
#X floatatom 154 93 5 0 0 1 add braid_\$1_add_3_in braid_\$1_add_3_out 0;
#X floatatom 154 123 5 0 0 1 add braid_\$1_add_4_in braid_\$1_add_4_out 0;
#N canvas 0 0 1920 915 working 0;
#X obj 448 142 *~;
#X obj 448 202 +~;
#X obj 448 232 clip~ -1 1;
#X obj 35 67 loadbang;
#X obj 37 154 loadbang;
#X obj 37 244 loadbang;
#X obj 37 334 loadbang;
#X obj 645 134 *~;
#X obj 645 194 +~;
#X obj 645 224 clip~ -1 1;
#X obj 859 127 *~;
#X obj 859 187 +~;
#X obj 859 217 clip~ -1 1;
#X obj 1073 127 *~;
#X obj 1073 187 +~;
#X obj 1073 217 clip~ -1 1;
#N canvas 498 536 450 300 control 0;
#X obj 165 156 snapshot~;
#X obj 217 126 metro 10;
#X obj 217 96 loadbang;
#X obj 164 66 inlet~;
#X obj 291 168 outlet;
#X connect 0 0 4 0;
#X connect 1 0 0 0;
#X connect 2 0 1 0;
#X connect 3 0 0 0;
#X restore 462 263 pd control;
#N canvas 498 536 450 300 control 0;
#X obj 165 156 snapshot~;
#X obj 217 126 metro 10;
#X obj 217 96 loadbang;
#X obj 164 66 inlet~;
#X obj 291 168 outlet;
#X connect 0 0 4 0;
#X connect 1 0 0 0;
#X connect 2 0 1 0;
#X connect 3 0 0 0;
#X restore 637 264 pd control;
#N canvas 498 536 450 300 control 0;
#X obj 165 156 snapshot~;
#X obj 217 126 metro 10;
#X obj 217 96 loadbang;
#X obj 164 66 inlet~;
#X obj 291 168 outlet;
#X connect 0 0 4 0;
#X connect 1 0 0 0;
#X connect 2 0 1 0;
#X connect 3 0 0 0;
#X restore 848 273 pd control;
#N canvas 498 536 450 300 control 0;
#X obj 165 156 snapshot~;
#X obj 217 126 metro 10;
#X obj 217 96 loadbang;
#X obj 164 66 inlet~;
#X obj 291 168 outlet;
#X connect 0 0 4 0;
#X connect 1 0 0 0;
#X connect 2 0 1 0;
#X connect 3 0 0 0;
#X restore 1040 282 pd control;
#N canvas 498 536 450 300 control 0;
#X obj 165 156 snapshot~;
#X obj 217 126 metro 10;
#X obj 217 96 loadbang;
#X obj 164 66 inlet~;
#X obj 291 168 outlet;
#X connect 0 0 4 0;
#X connect 1 0 0 0;
#X connect 2 0 1 0;
#X connect 3 0 0 0;
#X restore 480 433 pd control;
#X obj 467 498 threshold~;
#X obj 450 388 *~ 1;
#X obj 35 127 s braid_\$1_mul_1_in;
#X obj 37 214 s braid_\$1_mul_2_in;
#X obj 37 304 s braid_\$1_mul_3_in;
#X obj 37 394 s braid_\$1_mul_4_in;
#X obj 205 65 loadbang;
#X obj 207 152 loadbang;
#X obj 207 242 loadbang;
#X obj 207 332 loadbang;
#X obj 205 125 s braid_\$1_add_1_in;
#X obj 207 212 s braid_\$1_add_2_in;
#X obj 207 302 s braid_\$1_add_3_in;
#X obj 207 392 s braid_\$1_add_4_in;
#X obj 458 112 r braid_\$1_mul_1_out;
#X obj 458 172 r braid_\$1_add_1_out;
#X obj 655 104 r braid_\$1_mul_2_out;
#X obj 655 164 r braid_\$1_add_2_out;
#X obj 869 97 r braid_\$1_mul_3_out;
#X obj 869 157 r braid_\$1_add_3_out;
#X obj 1083 97 r braid_\$1_mul_4_out;
#X obj 1083 157 r braid_\$1_add_4_out;
#X obj 448 82 r~ osc_1_output;
#X obj 645 74 r~ osc_2_output;
#X obj 859 67 r~ osc_3_output;
#X obj 1073 67 r~ osc_4_output;
#X obj 464 290 s braid_\$1_slider_1;
#X obj 639 291 s braid_\$1_slider_2;
#X obj 850 300 s braid_\$1_slider_3;
#X obj 1042 309 s braid_\$1_slider_4;
#X msg 35 97 1;
#X msg 37 184 1;
#X msg 37 274 1;
#X msg 37 364 1;
#X msg 205 95 0;
#X msg 207 182 0;
#X msg 207 362 0;
#X msg 207 272 0;
#X obj 467 528 s braid_\$1_bang;
#X obj 482 460 s braid_\$1_output;
#X obj 448 563 s~ braid_\$1_output;
#X connect 0 0 1 0;
#X connect 1 0 2 0;
#X connect 2 0 16 0;
#X connect 2 0 22 0;
#X connect 3 0 51 0;
#X connect 4 0 52 0;
#X connect 5 0 53 0;
#X connect 6 0 54 0;
#X connect 7 0 8 0;
#X connect 8 0 9 0;
#X connect 9 0 17 0;
#X connect 9 0 22 0;
#X connect 10 0 11 0;
#X connect 11 0 12 0;
#X connect 12 0 18 0;
#X connect 12 0 22 0;
#X connect 13 0 14 0;
#X connect 14 0 15 0;
#X connect 15 0 19 0;
#X connect 15 0 22 0;
#X connect 16 0 47 0;
#X connect 17 0 48 0;
#X connect 18 0 49 0;
#X connect 19 0 50 0;
#X connect 20 0 60 0;
#X connect 21 0 59 0;
#X connect 22 0 20 0;
#X connect 22 0 21 0;
#X connect 22 0 61 0;
#X connect 27 0 55 0;
#X connect 28 0 56 0;
#X connect 29 0 58 0;
#X connect 30 0 57 0;
#X connect 35 0 0 1;
#X connect 36 0 1 1;
#X connect 37 0 7 1;
#X connect 38 0 8 1;
#X connect 39 0 10 1;
#X connect 40 0 11 1;
#X connect 41 0 13 1;
#X connect 42 0 14 1;
#X connect 43 0 0 0;
#X connect 44 0 7 0;
#X connect 45 0 10 0;
#X connect 46 0 13 0;
#X connect 51 0 23 0;
#X connect 52 0 24 0;
#X connect 53 0 25 0;
#X connect 54 0 26 0;
#X connect 55 0 31 0;
#X connect 56 0 32 0;
#X connect 57 0 34 0;
#X connect 58 0 33 0;
#X restore 29 199 pd working;
