#N canvas 773 195 960 979 12;
#X obj 81 394 text set state;
#X obj 601 136 text search state, f 33;
#X obj 604 174 text get state;
#X msg 605 203 \$2;
#X obj 605 101 symbol \$1;
#X obj 602 237 s \$1_in;
#X obj 192 357 f \$2;
#X obj 110 42 r \$1_out;
#X obj 579 13 r load_preset;
#X obj 234 155 text search state, f 33;
#X obj 257 82 symbol \$1;
#X floatatom 251 230 5 0 0 0 - - - 0;
#X obj 67 468 print huh;
#X obj 376 361 list;
#X obj 597 61 bng 20 250 50 0 empty empty empty 0 -10 0 12 #fcfcfc #000000 #000000;
#X obj 501 251 print a;
#X obj 155 136 print b;
#X obj 375 92 print c;
#X obj 303 49 bng 20 250 50 0 empty empty empty 0 -10 0 12 #fcfcfc #000000 #000000;
#X text 372 38 this load bang has to happen after initial load;
#X obj 85 268 symbol \$1;
#X obj 133 221 bng 20 250 50 0 empty empty empty 0 -10 0 12 #fcfcfc #000000 #000000;
#X obj 159 189 t b f;
#X obj 124 303 pack s f;
#X msg 77 347 list \$1 \$2;
#X obj 361 11 r load_name;
#X obj 517 173 print a;
#X obj 169 92 change;
#X connect 1 0 2 0;
#X connect 2 0 3 0;
#X connect 3 0 5 0;
#X connect 3 0 15 0;
#X connect 4 0 1 0;
#X connect 4 0 26 0;
#X connect 6 0 0 1;
#X connect 7 0 27 0;
#X connect 8 0 14 0;
#X connect 9 0 11 0;
#X connect 10 0 9 0;
#X connect 10 0 17 0;
#X connect 11 0 0 1;
#X connect 14 0 4 0;
#X connect 18 0 10 0;
#X connect 20 0 23 0;
#X connect 21 0 20 0;
#X connect 22 0 21 0;
#X connect 22 1 23 1;
#X connect 23 0 24 0;
#X connect 24 0 0 0;
#X connect 24 0 12 0;
#X connect 25 0 18 0;
#X connect 27 0 16 0;
#X connect 27 0 22 0;
