#N canvas 790 270 960 979 12;
#X obj 73 194 text set state;
#X obj 66 61 change;
#X obj 65 327 text search state, f 33;
#X obj 68 365 text get state;
#X msg 69 394 \$2;
#X obj 69 292 symbol \$1;
#X obj 66 428 s \$1_in;
#X obj 184 157 f \$2;
#X obj 63 22 r \$1_out;
#X obj 112 93 symbol \$1;
#X msg 61 149 list \$2 \$1;
#X obj 72 242 r load_preset;
#X obj 74 117 pack f s;
#X obj 253 117 text search state, f 33;
#X obj 257 82 symbol \$1;
#X obj 260 32 r load_names;
#X connect 1 0 12 0;
#X connect 2 0 3 0;
#X connect 3 0 4 0;
#X connect 4 0 6 0;
#X connect 5 0 2 0;
#X connect 7 0 0 1;
#X connect 8 0 1 0;
#X connect 9 0 12 1;
#X connect 10 0 0 0;
#X connect 11 0 5 0;
#X connect 12 0 10 0;
#X connect 13 0 7 0;
#X connect 13 0 9 0;
#X connect 14 0 13 0;
#X connect 15 0 14 0;
