#N canvas 346 296 805 494 12;
#X obj 73 194 text set state;
#X obj 66 61 change;
#X obj 108 323 text search state, f 33;
#X obj 111 361 text get state;
#X msg 112 390 \$2;
#X obj 112 288 symbol \$1;
#X obj 109 424 s \$1_in;
#X obj 185 157 f \$2;
#X obj 206 50 loadbang;
#X obj 63 22 r \$1_out;
#X obj 112 93 symbol \$1;
#X msg 61 149 list \$2 \$1;
#X obj 115 238 r load_preset;
#X obj 417 135 print;
#X obj 74 117 pack f s;
#X obj 356 107 print;
#X obj 394 219 print;
#X connect 1 0 14 0;
#X connect 2 0 3 0;
#X connect 3 0 4 0;
#X connect 4 0 6 0;
#X connect 5 0 2 0;
#X connect 7 0 0 2;
#X connect 7 0 16 0;
#X connect 8 0 7 0;
#X connect 8 0 10 0;
#X connect 9 0 1 0;
#X connect 10 0 14 1;
#X connect 10 0 15 0;
#X connect 11 0 0 0;
#X connect 12 0 5 0;
#X connect 14 0 11 0;
#X connect 14 0 13 0;
