#N canvas 637 123 863 593 12;
#X obj 45 205 loadbang;
#X obj 44 308 phasor~ 0.00166667;
#X obj 44 356 s~ index;
#X text 49 458 phasor runs for ten minutes.;
#X obj 187 299 loadbang;
#X obj 188 332 metro 10;
#X obj 187 361 snapshot~;
#X obj 188 395 s index;
#N canvas 0 50 450 250 (subpatch) 0;
#X array sine 44100 float 2;
#X coords 0 1 44100 -1 200 140 1;
#X restore 599 331 graph;
#X obj 659 133 loadbang;
#X obj 656 160 t b b;
#X msg 683 203 0;
#X obj 615 251 osc~ 1;
#X obj 673 283 tabwrite~ sine;
#X msg 44 269 0;
#X text 596 498 reusable sine shape;
#X obj 10 10 cnv 19 790 60 empty empty empty 20 12 0 12 #e3c6ff #404040 0;
#X obj 58 30 hsl 170 19 0 1 0 0 nope index index -2 9 0 12 #000000 #ffffff #606060 0 1;
#X obj 30 30 bng 19 250 50 0 reset_index_out reset_index_in empty 0 -10 0 12 #fcfcfc #000000 #000000;
#X obj 68 236 r reset_index_out;
#X connect 0 0 14 0;
#X connect 1 0 2 0;
#X connect 1 0 6 0;
#X connect 4 0 5 0;
#X connect 5 0 6 0;
#X connect 6 0 7 0;
#X connect 9 0 10 0;
#X connect 10 0 13 0;
#X connect 10 1 11 0;
#X connect 11 0 12 1;
#X connect 12 0 13 0;
#X connect 14 0 1 1;
#X connect 19 0 14 0;
#X coords 0 593 1 592 790 60 0;
