#N canvas 0 38 1512 916 12;
#X obj 825 65 r~ output_1;
#X obj 825 125 *~;
#X obj 825 185 +~;
#X obj 825 215 clip~ -1 1;
#X obj 570 74 loadbang;
#X msg 570 104 1;
#X obj 570 134 s mul_\$1_1_in;
#X obj 835 95 r mul_\$1_1_out;
#X obj 680 74 loadbang;
#X obj 680 134 s add_\$1_1_in;
#X obj 835 155 r add_\$1_1_out;
#X msg 680 104 0;
#X obj 825 546 s~ multi_output_\$1;
#X obj 570 164 loadbang;
#X msg 570 194 1;
#X obj 680 164 loadbang;
#X msg 680 194 0;
#X obj 570 254 loadbang;
#X msg 570 284 1;
#X obj 680 254 loadbang;
#X msg 680 284 0;
#X obj 570 344 loadbang;
#X msg 570 374 1;
#X obj 680 344 loadbang;
#X msg 680 374 0;
#X obj 570 224 s mul_\$1_2_in;
#X obj 680 224 s add_\$1_2_in;
#X obj 570 314 s mul_\$1_3_in;
#X obj 680 314 s add_\$1_3_in;
#X obj 570 404 s mul_\$1_4_in;
#X obj 680 404 s add_\$1_4_in;
#X obj 827 371 *~ 1;
#X obj 954 120 *~;
#X obj 954 180 +~;
#X obj 954 210 clip~ -1 1;
#X obj 954 60 r~ output_2;
#X obj 964 90 r mul_\$1_2_out;
#X obj 964 150 r add_\$1_2_out;
#X obj 1086 127 *~;
#X obj 1086 187 +~;
#X obj 1086 217 clip~ -1 1;
#X obj 1215 122 *~;
#X obj 1215 182 +~;
#X obj 1215 212 clip~ -1 1;
#X obj 1086 67 r~ output_3;
#X obj 1215 62 r~ output_4;
#X obj 1096 97 r mul_\$1_3_out;
#X obj 1096 157 r add_\$1_3_out;
#X obj 1225 92 r mul_\$1_4_out;
#X obj 1225 152 r add_\$1_4_out;
#X obj 841 273 s \$1_1_slider;
#X obj 948 277 s \$1_2_slider;
#N canvas 498 536 450 300 control 0;
#X obj 165 156 snapshot~;
#X obj 217 126 metro 10;
#X obj 217 96 loadbang;
#X obj 164 66 inlet~;
#X obj 291 168 outlet;
#X connect 0 0 4 0;
#X connect 1 0 0 0;
#X connect 2 0 1 0;
#X connect 3 0 0 0;
#X restore 839 246 pd control;
#N canvas 498 536 450 300 control 0;
#X obj 165 156 snapshot~;
#X obj 217 126 metro 10;
#X obj 217 96 loadbang;
#X obj 164 66 inlet~;
#X obj 291 168 outlet;
#X connect 0 0 4 0;
#X connect 1 0 0 0;
#X connect 2 0 1 0;
#X connect 3 0 0 0;
#X restore 946 250 pd control;
#N canvas 498 536 450 300 control 0;
#X obj 165 156 snapshot~;
#X obj 217 126 metro 10;
#X obj 217 96 loadbang;
#X obj 164 66 inlet~;
#X obj 291 168 outlet;
#X connect 0 0 4 0;
#X connect 1 0 0 0;
#X connect 2 0 1 0;
#X connect 3 0 0 0;
#X restore 1075 273 pd control;
#N canvas 498 536 450 300 control 0;
#X obj 165 156 snapshot~;
#X obj 217 126 metro 10;
#X obj 217 96 loadbang;
#X obj 164 66 inlet~;
#X obj 291 168 outlet;
#X connect 0 0 4 0;
#X connect 1 0 0 0;
#X connect 2 0 1 0;
#X connect 3 0 0 0;
#X restore 1182 277 pd control;
#X obj 1077 300 s \$1_3_slider;
#X obj 1184 304 s \$1_4_slider;
#N canvas 498 536 450 300 control 0;
#X obj 165 156 snapshot~;
#X obj 217 126 metro 10;
#X obj 217 96 loadbang;
#X obj 164 66 inlet~;
#X obj 291 168 outlet;
#X connect 0 0 4 0;
#X connect 1 0 0 0;
#X connect 2 0 1 0;
#X connect 3 0 0 0;
#X restore 857 416 pd control;
#X obj 859 443 s multi_output_\$1;
#X obj 844 481 threshold~;
#X obj 844 511 s bang_output_\$1;
#X obj 100 100 cnv 19 400 160 empty empty empty 20 12 0 12 #ffe3c6 #404040 0;
#X floatatom 160 110 5 0 0 1 mul mul_\$1_1_in mul_\$1_1_out 0;
#X text 111 109 osc_1;
#X floatatom 230 110 5 0 0 1 add add_\$1_1_in add_\$1_1_out 0;
#X obj 303 110 hsl 162 19 -1 1 0 0 nope \$1_1_slider empty -2 -10 0 12 #fcfcfc #000000 #000000 0 1;
#X floatatom 160 140 5 0 0 1 mul mul_\$1_2_in mul_\$1_2_out 0;
#X floatatom 230 140 5 0 0 1 add add_\$1_2_in add_\$1_2_out 0;
#X obj 303 140 hsl 162 19 -1 1 0 0 nope \$1_2_slider empty -2 -10 0 12 #fcfcfc #000000 #000000 0 1;
#X floatatom 160 170 5 0 0 1 mul mul_\$1_3_in mul_\$1_3_out 0;
#X floatatom 230 170 5 0 0 1 add add_\$1_3_in add_\$1_3_out 0;
#X obj 303 170 hsl 162 19 -1 1 0 0 nope \$1_3_slider empty -2 -10 0 12 #fcfcfc #000000 #000000 0 1;
#X floatatom 160 200 5 0 0 1 mul mul_\$1_4_in mul_\$1_4_out 0;
#X floatatom 230 200 5 0 0 1 add add_\$1_4_in add_\$1_4_out 0;
#X obj 303 200 hsl 162 19 -1 1 0 0 nope \$1_4_slider empty -2 -10 0 12 #fcfcfc #000000 #000000 0 1;
#X text 111 139 osc_2;
#X text 111 169 osc_3;
#X text 111 199 osc_4;
#X obj 303 230 hsl 162 19 -1 1 0 0 nope multi_output_\$1 empty -2 -10 0 12 #fcfcfc #000000 #000000 0 1;
#X obj 160 230 bng 19 250 50 0 nope bang_output_\$1 empty 0 -10 0 12 #fcfcfc #ffe3c6 #000000;
#X connect 0 0 1 0;
#X connect 1 0 2 0;
#X connect 2 0 3 0;
#X connect 3 0 52 0;
#X connect 3 0 31 0;
#X connect 4 0 5 0;
#X connect 5 0 6 0;
#X connect 7 0 1 1;
#X connect 8 0 11 0;
#X connect 10 0 2 1;
#X connect 11 0 9 0;
#X connect 13 0 14 0;
#X connect 14 0 25 0;
#X connect 15 0 16 0;
#X connect 16 0 26 0;
#X connect 17 0 18 0;
#X connect 18 0 27 0;
#X connect 19 0 20 0;
#X connect 20 0 28 0;
#X connect 21 0 22 0;
#X connect 22 0 29 0;
#X connect 23 0 24 0;
#X connect 24 0 30 0;
#X connect 31 0 12 0;
#X connect 31 0 58 0;
#X connect 31 0 60 0;
#X connect 32 0 33 0;
#X connect 33 0 34 0;
#X connect 34 0 31 0;
#X connect 34 0 53 0;
#X connect 35 0 32 0;
#X connect 36 0 32 1;
#X connect 37 0 33 1;
#X connect 38 0 39 0;
#X connect 39 0 40 0;
#X connect 40 0 31 0;
#X connect 40 0 54 0;
#X connect 41 0 42 0;
#X connect 42 0 43 0;
#X connect 43 0 31 0;
#X connect 43 0 55 0;
#X connect 44 0 38 0;
#X connect 45 0 41 0;
#X connect 46 0 38 1;
#X connect 47 0 39 1;
#X connect 48 0 41 1;
#X connect 49 0 42 1;
#X connect 52 0 50 0;
#X connect 53 0 51 0;
#X connect 54 0 56 0;
#X connect 55 0 57 0;
#X connect 58 0 59 0;
#X connect 60 0 61 0;
#X coords 0 -1 1 1 400 160 2 100 100;
