#N canvas 1430 24 480 455 12;
#X obj 25 21 hsl 150 20 0 127 0 0 osc_\$1_input_out osc_\$1_input_in
input 0 10 0 12 #000000 #ffffff #606060 0 1;
#X floatatom 22 111 10 0 0 1 ms osc_\$1_ms_in osc_\$1_ms_out 0;
#X obj 25 141 hsl 150 20 -1 1 0 0 nope osc_\$1_output output 0 10 0
12 #000000 #ffffff #606060 0 1;
#X floatatom 22 51 5 0 0 1 start osc_\$1_start_in osc_\$1_start_out
0;
#X floatatom 22 81 5 0 0 1 end osc_\$1_end_in osc_\$1_end_out 0;
#N canvas 0 0 1203 774 working 0;
#X obj 53 112 ctlin \$1;
#X obj 821 256 r~ index;
#X obj 833 375 expr 600000/$f1;
#X obj 823 405 *~;
#X obj 823 435 wrap~ 0 1;
#X obj 963 405 snapshot~;
#X obj 973 375 metro 10;
#X obj 823 465 *~ 44100;
#X obj 823 495 tabread~ sine;
#X obj 973 345 loadbang;
#X obj 47 278 loadbang;
#X obj 192 451 loadbang;
#X obj 47 516 s osc_\$1_start_in;
#X text 58 554 default start ++ end points;
#X obj 194 515 s osc_\$1_end_in;
#X floatatom 480 572 5 0 0 0 - - - 0;
#X obj 477 527 r interval_out;
#X obj 470 185 r osc_\$1_start_out;
#X obj 617 184 r osc_\$1_end_out;
#X obj 400 163 / 127;
#X obj 365 492 *;
#X obj 524 282 expr abs($f1-$f2);
#X floatatom 428 568 5 0 0 0 - - - 0;
#X obj 407 284 <;
#X obj 409 348 - 1;
#X obj 401 316 * 2;
#X obj 329 424 *;
#X obj 423 520 +;
#X obj 430 543 abs;
#X obj 425 630 *;
#X obj 480 603 t b f;
#X obj 573 236 t b f;
#X msg 193 485 2;
#X obj 718 549 threshold~;
#X obj 721 600 bng 19 250 50 0 empty empty empty 0 -10 0 12 #fcfcfc
#000000 #000000;
#X obj 52 191 s osc_\$1_input_in;
#X obj 401 130 r osc_\$1_input_out;
#X obj 57 137 hsl 162 19 0 127 0 0 empty empty empty -2 -10 0 12 #fcfcfc
#000000 #000000 0 1;
#X floatatom 410 661 5 0 0 0 - - - 0;
#X obj 491 661 s osc_\$1_ms_in;
#X obj 831 286 r osc_\$1_ms_out;
#X obj 823 525 s~ osc_\$1_output;
#X obj 963 315 r~ osc_\$1_output;
#X obj 963 435 s osc_\$1_output;
#X obj 799 604 s osc_\$1_bang;
#X msg 48 483 4;
#X obj 145 333 expr \$1;
#X obj 70 332 t b b;
#X msg 146 403 set \$1;
#X obj 864 330 moses 0.01;
#X connect 0 0 37 0;
#X connect 1 0 3 0;
#X connect 2 0 3 1;
#X connect 3 0 4 0;
#X connect 4 0 7 0;
#X connect 5 0 43 0;
#X connect 6 0 5 0;
#X connect 7 0 8 0;
#X connect 8 0 33 0;
#X connect 8 0 41 0;
#X connect 9 0 6 0;
#X connect 10 0 47 0;
#X connect 11 0 32 0;
#X connect 15 0 30 0;
#X connect 16 0 15 0;
#X connect 17 0 21 0;
#X connect 17 0 23 0;
#X connect 17 0 27 1;
#X connect 18 0 31 0;
#X connect 19 0 26 0;
#X connect 20 0 27 0;
#X connect 21 0 20 1;
#X connect 22 0 29 0;
#X connect 23 0 25 0;
#X connect 24 0 26 1;
#X connect 25 0 24 0;
#X connect 26 0 20 0;
#X connect 27 0 28 0;
#X connect 28 0 22 0;
#X connect 29 0 38 0;
#X connect 29 0 39 0;
#X connect 30 0 29 0;
#X connect 30 1 29 1;
#X connect 31 0 21 0;
#X connect 31 0 23 0;
#X connect 31 0 27 0;
#X connect 31 1 21 1;
#X connect 31 1 23 1;
#X connect 32 0 14 0;
#X connect 33 0 34 0;
#X connect 33 0 44 0;
#X connect 36 0 19 0;
#X connect 37 0 35 0;
#X connect 40 0 49 0;
#X connect 42 0 5 0;
#X connect 45 0 12 0;
#X connect 46 0 48 0;
#X connect 47 0 45 0;
#X connect 47 1 46 0;
#X connect 48 0 45 0;
#X connect 49 1 2 0;
#X restore 22 171 pd working;
#X text 92 70 thought \, would crossfade between osc work better;
