#N canvas 950 24 960 979 12;
#X obj 73 157 text define state;
#X obj 605 332 s load_preset;
#X obj 605 298 bng 20 250 50 0 empty empty empty 0 -10 0 12 #fcfcfc #000000 #000000;
#X obj 608 372 savepanel;
#X obj 472 40 bng 20 250 50 0 empty empty empty 0 -10 0 12 #fcfcfc #000000 #000000;
#X obj 71 202 datum interval;
#X obj 70 242 datum osc_1_start;
#X obj 70 272 datum osc_1_end;
#X obj 70 302 datum osc_2_start;
#X obj 69 332 datum osc_2_end;
#X obj 73 368 datum osc_3_start;
#X obj 73 398 datum osc_3_end;
#X obj 73 428 datum osc_4_start;
#X obj 72 457 datum osc_4_end;
#X obj 64 532 datum braid_sample_trigger_mul_1;
#X obj 63 562 datum braid_sample_trigger_mul_2;
#X obj 64 592 datum braid_sample_trigger_mul_3;
#X obj 63 622 datum braid_sample_trigger_mul_4;
#X obj 64 672 datum braid_sample_trigger_add_1;
#X obj 63 702 datum braid_sample_trigger_add_2;
#X obj 64 732 datum braid_sample_trigger_add_3;
#X obj 63 762 datum braid_sample_trigger_add_4;
#X obj 472 73 s load_name;
#X obj 241 219 bng 20 250 50 0 empty empty empty 0 -10 0 12 #fcfcfc #000000 #000000;
#X obj 291 219 bng 20 250 50 0 empty empty empty 0 -10 0 12 #fcfcfc #000000 #000000;
#X text 232 109 initial state could be a blank test preset \, and then load names later tracks are populated preset and load_preset;
#X msg 80 38 write default.txt;
#X msg 125 89 read default.txt;
#X obj 304 28 loadbang;
#X obj 497 184 bng 20 250 50 0 empty empty empty 0 -10 0 12 #fcfcfc #000000 #000000;
#X obj 481 218 t b b;
#X obj 300 92 bng 20 250 50 0 empty empty empty 0 -10 0 12 #fcfcfc #000000 #000000;
#X obj 297 62 del 1000;
#X obj 357 70 del 2000;
#X msg 326 271 read test.txt;
#X text 564 207 when you hit this you would probably want to restart the spine again;
#X connect 0 0 23 0;
#X connect 0 1 24 0;
#X connect 2 0 1 0;
#X connect 4 0 22 0;
#X connect 26 0 0 0;
#X connect 27 0 0 0;
#X connect 28 0 32 0;
#X connect 28 0 33 0;
#X connect 29 0 30 0;
#X connect 30 0 2 0;
#X connect 30 1 34 0;
#X connect 31 0 27 0;
#X connect 32 0 31 0;
#X connect 33 0 4 0;
#X connect 34 0 0 0;
