#N canvas 950 24 960 979 12;
#X obj 73 157 text define state;
#X msg 80 38 write test.txt;
#X msg 125 89 read test.txt;
#X obj 71 202 datum interval 0;
#X obj 329 67 s load_preset;
#X obj 329 33 bng 20 250 50 0 empty empty empty 0 -10 0 12 #fcfcfc
#000000 #000000;
#X obj 332 107 savepanel;
#X obj 70 242 datum osc_1_start 1;
#X obj 70 272 datum osc_1_end 2;
#X obj 70 302 datum osc_2_start 3;
#X obj 73 368 datum osc_3_start 5;
#X obj 73 398 datum osc_3_end 6;
#X obj 73 428 datum osc_4_start 7;
#X obj 73 458 datum osc_4_end 8;
#X obj 70 332 datum osc_2_end 4;
#X obj 64 532 datum braid_sample_trigger_mul_1 9;
#X obj 63 562 datum braid_sample_trigger_mul_2 10;
#X obj 64 592 datum braid_sample_trigger_mul_3 11;
#X obj 63 622 datum braid_sample_trigger_mul_4 12;
#X obj 64 672 datum braid_sample_trigger_add_1 13;
#X obj 63 702 datum braid_sample_trigger_add_2 14;
#X obj 64 732 datum braid_sample_trigger_add_3 15;
#X obj 63 762 datum braid_sample_trigger_add_4 16;
#X connect 1 0 0 0;
#X connect 2 0 0 0;
#X connect 5 0 4 0;
