#N canvas 950 24 960 979 12;
#X obj 73 157 text define state;
#X msg 80 38 write test.txt;
#X msg 125 89 read test.txt;
#X obj 448 203 s load_preset;
#X obj 448 169 bng 20 250 50 0 empty empty empty 0 -10 0 12 #fcfcfc #000000 #000000;
#X obj 451 243 savepanel;
#X obj 472 40 bng 20 250 50 0 empty empty empty 0 -10 0 12 #fcfcfc #000000 #000000;
#X obj 472 74 s load_names;
#X text 232 109 what you need here is to load default \, and then trigger load names;
#X obj 71 202 datum interval;
#X obj 70 242 datum osc_1_start;
#X obj 70 272 datum osc_1_end;
#X obj 70 302 datum osc_2_start;
#X obj 69 332 datum osc_2_end;
#X obj 73 368 datum osc_3_start;
#X obj 73 398 datum osc_3_end;
#X obj 73 428 datum osc_4_start;
#X obj 72 457 datum osc_4_end;
#X obj 64 532 datum braid_sample_trigger_mul_1;
#X obj 63 562 datum braid_sample_trigger_mul_2;
#X obj 64 592 datum braid_sample_trigger_mul_3;
#X obj 63 622 datum braid_sample_trigger_mul_4;
#X obj 64 672 datum braid_sample_trigger_add_1;
#X obj 63 702 datum braid_sample_trigger_add_2;
#X obj 64 732 datum braid_sample_trigger_add_3;
#X obj 63 762 datum braid_sample_trigger_add_4;
#X connect 1 0 0 0;
#X connect 2 0 0 0;
#X connect 4 0 3 0;
#X connect 6 0 7 0;
