#N canvas 646 62 450 300 12;
#X obj 49 56 inlet;
#X obj 219 80 bng 20 250 50 0 empty empty empty 0 -10 0 12 #fcfcfc #000000 #000000;
#X obj 120 170 random 128;
#X obj 200 168 random 128;
#X obj 298 196 -;
#X obj 303 227 abs;
#X obj 267 259 i;
#X obj 306 116 bng 20 250 50 0 empty empty empty 0 -10 0 12 #fcfcfc #000000 #000000;
#X obj 267 297 < 10;
#X obj 381 189 delay 5;
#X obj 271 362 t b b;
#X obj 185 406 i;
#X obj 238 400 i;
#X floatatom 178 442 5 0 0 0 - - - 0;
#X floatatom 237 440 5 0 0 0 - - - 0;
#X obj 206 503 >;
#X obj 272 474 -;
#X obj 274 527 abs;
#X obj 69 193 / 127;
#X obj 104 564 *;
#X obj 115 629 *;
#X obj 169 655 +;
#X obj 197 530 * 2;
#X obj 200 559 - 1;
#X obj 195 584 * -1;
#X obj 173 681 outlet;
#X msg 86 125 0;
#X obj 107 89 t b b b b;
#X obj 272 332 sel 0 1;
#X obj 206 36 r reset_out;
#X connect 0 0 18 0;
#X connect 1 0 27 0;
#X connect 2 0 4 0;
#X connect 2 0 11 1;
#X connect 3 0 12 1;
#X connect 3 0 4 1;
#X connect 4 0 5 0;
#X connect 5 0 6 1;
#X connect 6 0 8 0;
#X connect 7 0 6 0;
#X connect 8 0 28 0;
#X connect 9 0 1 0;
#X connect 10 0 11 0;
#X connect 10 1 12 0;
#X connect 11 0 13 0;
#X connect 12 0 14 0;
#X connect 13 0 15 0;
#X connect 13 0 16 0;
#X connect 13 0 21 1;
#X connect 14 0 15 1;
#X connect 14 0 16 1;
#X connect 15 0 22 0;
#X connect 16 0 17 0;
#X connect 17 0 20 1;
#X connect 18 0 19 0;
#X connect 19 0 20 0;
#X connect 20 0 21 0;
#X connect 21 0 25 0;
#X connect 22 0 23 0;
#X connect 23 0 24 0;
#X connect 24 0 19 1;
#X connect 26 0 18 0;
#X connect 27 0 26 0;
#X connect 27 1 7 0;
#X connect 27 2 2 0;
#X connect 27 3 3 0;
#X connect 28 0 10 0;
#X connect 28 1 9 0;
#X connect 29 0 1 0;
