#N canvas 428 65 894 667 12;
#X obj 424 299 ctlin \$1;
#N canvas 295 108 1233 737 range 0;
#X obj 278 73 bng 20 250 50 0 empty empty empty 0 -10 0 12 #fcfcfc #000000 #000000;
#X obj 179 163 random 128;
#X obj 259 161 random 128;
#X obj 357 189 -;
#X obj 362 220 abs;
#X obj 326 252 i;
#X obj 365 109 bng 20 250 50 0 empty empty empty 0 -10 0 12 #fcfcfc #000000 #000000;
#X obj 326 290 < 10;
#X obj 440 182 delay 5;
#X obj 330 355 t b b;
#X obj 244 399 i;
#X obj 297 393 i;
#X floatatom 237 435 5 0 0 0 - - - 0;
#X floatatom 296 433 5 0 0 0 - - - 0;
#X obj 265 496 >;
#X obj 331 467 -;
#X obj 333 520 abs;
#X obj 128 186 / 127;
#X obj 163 557 *;
#X obj 174 622 *;
#X obj 228 648 +;
#X obj 256 523 * 2;
#X obj 259 552 - 1;
#X obj 254 577 * -1;
#X obj 232 674 outlet;
#X msg 145 118 0;
#X obj 166 82 t b b b b;
#X obj 331 325 sel 0 1;
#X obj 265 29 r reset_out;
#X obj 396 33 loadbang;
#X obj 107 50 inlet;
#X connect 0 0 26 0;
#X connect 1 0 3 0;
#X connect 1 0 10 1;
#X connect 2 0 11 1;
#X connect 2 0 3 1;
#X connect 3 0 4 0;
#X connect 4 0 5 1;
#X connect 5 0 7 0;
#X connect 6 0 5 0;
#X connect 7 0 27 0;
#X connect 8 0 0 0;
#X connect 9 0 10 0;
#X connect 9 1 11 0;
#X connect 10 0 12 0;
#X connect 11 0 13 0;
#X connect 12 0 14 0;
#X connect 12 0 15 0;
#X connect 12 0 20 1;
#X connect 13 0 14 1;
#X connect 13 0 15 1;
#X connect 14 0 21 0;
#X connect 15 0 16 0;
#X connect 16 0 19 1;
#X connect 17 0 18 0;
#X connect 18 0 19 0;
#X connect 19 0 20 0;
#X connect 20 0 24 0;
#X connect 21 0 22 0;
#X connect 22 0 23 0;
#X connect 23 0 18 1;
#X connect 25 0 17 0;
#X connect 26 0 25 0;
#X connect 26 1 6 0;
#X connect 26 2 1 0;
#X connect 26 3 2 0;
#X connect 27 0 9 0;
#X connect 27 1 8 0;
#X connect 28 0 0 0;
#X connect 29 0 0 0;
#X connect 30 0 17 0;
#X restore 424 389 pd range;
#X obj 424 479 s ms_in_\$1;
#X obj 554 329 r ms_out_\$1;
#X obj 424 449 + 200;
#X obj 544 299 r~ index;
#X obj 554 359 expr 600000/$f1;
#X obj 544 389 *~;
#X obj 544 419 wrap~ 0 1;
#X obj 684 389 snapshot~;
#X obj 694 359 metro 10;
#X obj 544 449 *~ 44100;
#X obj 544 479 tabread~ sine;
#X obj 684 419 s output_\$1;
#X obj 694 329 loadbang;
#X obj 100 100 cnv 20 200 120 empty empty empty 20 12 0 12 #e0e0e0 #404040 0;
#X obj 123 120 hsl 150 20 0 127 0 0 input_out_\$1 input_in_\$1 input 0 10 0 12 #000000 #ffffff #606060 0 1;
#X floatatom 120 150 10 0 0 1 ms ms_in_\$1 ms_out_\$1 0;
#X obj 123 180 hsl 150 20 -1 1 0 0 nope output_\$1 output 0 10 0 12 #000000 #ffffff #606060 0 1;
#X obj 424 329 s input_in_\$1;
#X obj 424 359 r input_out_\$1;
#X obj 424 419 * 50;
#X obj 544 509 s~ output_\$1;
#X obj 684 299 r~ output_\$1;
#X connect 0 0 19 0;
#X connect 1 0 21 0;
#X connect 3 0 6 0;
#X connect 4 0 2 0;
#X connect 5 0 7 0;
#X connect 6 0 7 1;
#X connect 7 0 8 0;
#X connect 8 0 11 0;
#X connect 9 0 13 0;
#X connect 10 0 9 0;
#X connect 11 0 12 0;
#X connect 12 0 22 0;
#X connect 14 0 10 0;
#X connect 20 0 1 0;
#X connect 21 0 4 0;
#X connect 23 0 9 0;
#X coords 0 -1 1 1 200 120 2 100 100;
