#N canvas 258 56 1215 876 12;
#X obj 50 349 ctlin \$1;
#X obj 833 345 r ms_out_\$1;
#X obj 823 315 r~ index;
#X obj 833 375 expr 600000/$f1;
#X obj 823 405 *~;
#X obj 823 435 wrap~ 0 1;
#X obj 963 405 snapshot~;
#X obj 973 375 metro 10;
#X obj 823 465 *~ 44100;
#X obj 823 495 tabread~ sine;
#X obj 963 435 s output_\$1;
#X obj 973 345 loadbang;
#X obj 100 100 cnv 20 190 150 empty empty empty 20 12 0 12 #e0e0e0 #404040 0;
#X obj 123 120 hsl 150 20 0 127 0 0 input_out_\$1 input_in_\$1 input 0 10 0 12 #000000 #ffffff #606060 0 1;
#X floatatom 120 180 10 0 0 1 ms ms_in_\$1 ms_out_\$1 0;
#X obj 123 210 hsl 150 20 -1 1 0 0 nope output_\$1 output 0 10 0 12 #000000 #ffffff #606060 0 1;
#X obj 50 379 s input_in_\$1;
#X obj 437 281 r input_out_\$1;
#X obj 823 525 s~ output_\$1;
#X obj 963 315 r~ output_\$1;
#X text 44 410 nanokontrol input;
#X floatatom 120 150 5 0 0 1 start osc_\$1_start_in osc_\$1_start_out 0;
#X floatatom 200 150 5 0 0 1 end osc_\$1_end_in osc_\$1_end_out 0;
#X obj 47 449 loadbang;
#X msg 48 483 1;
#X obj 192 451 loadbang;
#X obj 47 516 s osc_\$1_start_in;
#X text 58 554 default start ++ end points;
#X obj 194 515 s osc_\$1_end_in;
#X floatatom 516 723 5 0 0 0 - - - 0;
#X obj 513 678 r interval_out;
#X obj 506 336 r osc_\$1_start_out;
#X obj 653 335 r osc_\$1_end_out;
#X obj 436 314 / 127;
#X obj 401 643 *;
#X obj 560 433 expr abs($f1-$f2);
#X floatatom 464 719 5 0 0 0 - - - 0;
#X obj 443 435 <;
#X obj 445 499 - 1;
#X obj 437 467 * 2;
#X obj 365 575 *;
#X obj 459 671 +;
#X obj 466 694 abs;
#X msg 193 485 1.7;
#X obj 461 781 *;
#X obj 527 812 s ms_in_\$1;
#X obj 603 745 moses 1;
#X obj 516 754 t b f;
#X obj 609 387 t b f;
#X connect 0 0 16 0;
#X connect 1 0 3 0;
#X connect 2 0 4 0;
#X connect 3 0 4 1;
#X connect 4 0 5 0;
#X connect 5 0 8 0;
#X connect 6 0 10 0;
#X connect 7 0 6 0;
#X connect 8 0 9 0;
#X connect 9 0 18 0;
#X connect 11 0 7 0;
#X connect 17 0 33 0;
#X connect 19 0 6 0;
#X connect 23 0 24 0;
#X connect 24 0 26 0;
#X connect 25 0 43 0;
#X connect 29 0 47 0;
#X connect 30 0 29 0;
#X connect 31 0 35 0;
#X connect 31 0 37 0;
#X connect 31 0 41 1;
#X connect 32 0 48 0;
#X connect 33 0 40 0;
#X connect 34 0 41 0;
#X connect 35 0 34 1;
#X connect 36 0 44 0;
#X connect 37 0 39 0;
#X connect 38 0 40 1;
#X connect 39 0 38 0;
#X connect 40 0 34 0;
#X connect 41 0 42 0;
#X connect 42 0 36 0;
#X connect 43 0 28 0;
#X connect 44 0 46 0;
#X connect 46 1 45 0;
#X connect 47 0 44 0;
#X connect 47 1 44 1;
#X connect 48 0 35 0;
#X connect 48 0 37 0;
#X connect 48 0 41 0;
#X connect 48 1 35 1;
#X connect 48 1 37 1;
#X coords 0 -1 1 1 190 150 2 100 100;
