#N canvas 307 41 898 720 12;
#N canvas 117 24 508 724 index 0;
#X obj 34 42 loadbang;
#X obj 37 116 phasor~ 0.00166667;
#X obj 37 148 s~ index;
#X text 35 200 phasor runs for ten minutes.;
#X obj 322 106 loadbang;
#X obj 323 139 metro 10;
#X obj 322 168 snapshot~;
#X obj 323 202 s index;
#N canvas 0 50 450 250 (subpatch) 0;
#X array sine 44100 float 2;
#X coords 0 1 44100 -1 200 140 1;
#X restore 54 566 graph;
#X obj 106 365 loadbang;
#X obj 103 392 t b b;
#X msg 130 435 0;
#X obj 62 483 osc~ 1;
#X obj 120 515 tabwrite~ sine;
#X msg 37 77 0;
#X connect 0 0 14 0;
#X connect 1 0 2 0;
#X connect 1 0 6 0;
#X connect 4 0 5 0;
#X connect 5 0 6 0;
#X connect 6 0 7 0;
#X connect 9 0 10 0;
#X connect 10 0 13 0;
#X connect 10 1 11 0;
#X connect 11 0 12 1;
#X connect 12 0 13 0;
#X connect 14 0 1 1;
#X restore 22 22 pd index;
#X obj 95 22 hsl 170 20 0 1 0 0 nope index empty -2 -10 0 12 #fcfcfc #000000 #000000 0 1;
#X obj 22 62 single 1;
#X obj 232 62 single 2;
#X obj 442 62 single 3;
#X obj 652 62 single 4;
