#N canvas 102 430 958 624 12;
#X obj 164 263 hsl 170 20 0 127 0 0 empty kontrol_knob_1 empty -2 -10 0 12 #fcfcfc #000000 #000000 0 1;
#X obj 341 263 bng 20 250 50 0 empty empty empty 0 -10 0 12 #fcfcfc #000000 #000000;
#N canvas 1341 368 450 300 midi_routing 0;
#X obj 75 65 ctlin 1;
#X obj 76 128 s kontrol_knob_1;
#X connect 0 0 1 0;
#X restore 464 102 pd midi_routing;
#N canvas 1069 79 655 783 range 0;
#X obj 37 48 inlet;
#X obj 238 53 inlet;
#X floatatom 45 113 5 0 0 0 - - - 0;
#X obj 193 110 bng 20 250 50 0 empty empty empty 0 -10 0 12 #fcfcfc #000000 #000000;
#X text 256 123 on bang select two random points and range map;
#X text 262 198 if distance less than 10 \, regenerate;
#X obj 86 238 bng 20 250 50 0 empty empty empty 0 -10 0 12 #fcfcfc #000000 #000000;
#X obj 94 303 random 128;
#X floatatom 77 379 5 0 0 0 - - - 0;
#X obj 211 249 bng 20 250 50 0 empty empty empty 0 -10 0 12 #fcfcfc #000000 #000000;
#X obj 219 314 random 128;
#X floatatom 202 390 5 0 0 0 - - - 0;
#X text 410 1186 1 generate random numbers;
#X text 409 1225 2 if less than ten between regen;
#X text 416 1273 3 calcul range and offset;
#X obj 107 162 t b b b;
#X obj 71 434 -;
#X floatatom 75 496 5 0 0 0 - - - 0;
#X obj 117 473 abs;
#X obj 52 576 i;
#X floatatom 45 632 5 0 0 0 - - - 0;
#X obj 38 531 bng 20 250 50 0 empty empty empty 0 -10 0 12 #fcfcfc #000000 #000000;
#X obj 121 600 < 10;
#X floatatom 126 651 5 0 0 0 - - - 0;
#X obj 206 642 bng 20 250 50 0 empty empty empty 0 -10 0 12 #fcfcfc #000000 #000000;
#X obj 237 682 delay 5;
#X obj 211 599 sel 1;
#X obj 43 716 sel 0;
#X text 59 750 fire through the values and calculate range and offest;
#X obj 37 753 t b b;
#X obj 138 910 i;
#X obj 191 904 i;
#X floatatom 131 946 5 0 0 0 - - - 0;
#X floatatom 190 944 5 0 0 0 - - - 0;
#X floatatom 24 969 6 0 0 0 - - - 0;
#X floatatom 118 1157 5 0 0 0 - - - 0;
#X text 183 1159 starting point;
#X obj 159 1007 >;
#X text 204 1056 direction;
#X floatatom 292 1021 5 0 0 0 - - - 0;
#X obj 225 978 -;
#X text 341 1029 range;
#X obj 284 989 abs;
#X floatatom 22 1050 5 0 0 0 - - - 0;
#X obj 27 1020 / 127;
#X floatatom 150 1124 5 0 0 0 - - - 0;
#X obj 48 1108 *;
#X floatatom 51 1143 5 0 0 0 - - - 0;
#X obj 41 1214 *;
#X obj 52 1259 +;
#X floatatom 113 1253 5 0 0 0 - - - 0;
#X floatatom 182 1190 5 0 0 0 - - - 0;
#X obj 150 1034 * 2;
#X obj 153 1063 - 1;
#X obj 148 1088 * -1;
#X floatatom 254 1139 5 0 0 0 - - - 0;
#X obj 214 1248 outlet;
#X connect 0 0 2 0;
#X connect 1 0 3 0;
#X connect 2 0 34 0;
#X connect 3 0 15 0;
#X connect 6 0 7 0;
#X connect 7 0 8 0;
#X connect 8 0 16 0;
#X connect 8 0 30 1;
#X connect 9 0 10 0;
#X connect 10 0 11 0;
#X connect 11 0 16 1;
#X connect 11 0 31 1;
#X connect 15 0 21 0;
#X connect 15 1 6 0;
#X connect 15 2 9 0;
#X connect 16 0 18 0;
#X connect 17 0 19 1;
#X connect 18 0 17 0;
#X connect 19 0 20 0;
#X connect 19 0 22 0;
#X connect 21 0 19 0;
#X connect 22 0 23 0;
#X connect 22 0 26 0;
#X connect 22 0 27 0;
#X connect 24 0 25 0;
#X connect 25 0 3 0;
#X connect 26 0 24 0;
#X connect 27 0 29 0;
#X connect 29 0 30 0;
#X connect 29 1 31 0;
#X connect 30 0 32 0;
#X connect 31 0 33 0;
#X connect 32 0 35 0;
#X connect 32 0 37 0;
#X connect 32 0 40 0;
#X connect 33 0 37 1;
#X connect 33 0 40 1;
#X connect 34 0 44 0;
#X connect 35 0 49 1;
#X connect 37 0 52 0;
#X connect 39 0 48 1;
#X connect 40 0 42 0;
#X connect 42 0 39 0;
#X connect 43 0 46 0;
#X connect 44 0 43 0;
#X connect 45 0 46 1;
#X connect 46 0 47 0;
#X connect 47 0 48 0;
#X connect 48 0 49 0;
#X connect 48 0 51 0;
#X connect 49 0 50 0;
#X connect 49 0 56 0;
#X connect 52 0 53 0;
#X connect 53 0 54 0;
#X connect 54 0 55 0;
#X connect 54 0 45 0;
#X restore 161 293 pd range;
#X obj 164 323 hsl 170 20 0 127 0 0 empty empty empty -2 -10 0 12 #fcfcfc #000000 #000000 0 1;
#X connect 0 0 3 0;
#X connect 1 0 3 1;
#X connect 3 0 4 0;
