#N canvas 154 279 1142 412 12;
#X obj 13 70 hsl 100 15 0 127 0 0 empty kontrol_knob_1 empty -2 -10 0 12 #e3c6ff #9c00ff #000000 0 1;
#N canvas 960 104 581 704 midi_routing 0;
#X obj 10 10 ctlin 1;
#X obj 10 40 s kontrol_knob_1;
#X obj 10 70 ctlin 2;
#X obj 10 100 s kontrol_knob_2;
#X obj 10 130 ctlin 3;
#X obj 10 160 s kontrol_knob_3;
#X obj 10 190 ctlin 4;
#X obj 10 220 s kontrol_knob_4;
#X obj 10 250 ctlin 5;
#X obj 10 280 s kontrol_knob_5;
#X obj 10 310 ctlin 6;
#X obj 10 340 s kontrol_knob_6;
#X obj 10 370 ctlin 7;
#X obj 10 400 s kontrol_knob_7;
#X obj 10 430 ctlin 8;
#X obj 10 460 s kontrol_knob_8;
#X obj 10 490 ctlin 9;
#X obj 10 520 s kontrol_knob_9;
#X connect 0 0 1 0;
#X connect 2 0 3 0;
#X connect 4 0 5 0;
#X connect 6 0 7 0;
#X connect 8 0 9 0;
#X connect 10 0 11 0;
#X connect 12 0 13 0;
#X connect 14 0 15 0;
#X connect 16 0 17 0;
#X restore 10 10 pd midi_routing;
#X obj 13 120 hsl 100 15 0 127 0 0 empty empty empty -2 -10 0 12 #e3c6ff #9c00ff #000000 0 1;
#X obj 10 90 range;
#X obj 10 40 bng 20 250 50 0 reset_out reset_in reset 25 9 0 12 #fcfcfc #9c00ff #000000;
#X obj 133 70 hsl 100 15 0 127 0 0 empty kontrol_knob_2 empty -2 -10 0 12 #e3c6ff #9c00ff #000000 0 1;
#X obj 133 120 hsl 100 15 0 127 0 0 empty empty empty -2 -10 0 12 #e3c6ff #9c00ff #000000 0 1;
#X obj 130 90 range;
#X obj 253 70 hsl 100 15 0 127 0 0 empty kontrol_knob_3 empty -2 -10 0 12 #e3c6ff #9c00ff #000000 0 1;
#X obj 253 120 hsl 100 15 0 127 0 0 empty empty empty -2 -10 0 12 #e3c6ff #9c00ff #000000 0 1;
#X obj 250 90 range;
#X obj 373 70 hsl 100 15 0 127 0 0 empty kontrol_knob_4 empty -2 -10 0 12 #e3c6ff #9c00ff #000000 0 1;
#X obj 373 120 hsl 100 15 0 127 0 0 empty empty empty -2 -10 0 12 #e3c6ff #9c00ff #000000 0 1;
#X obj 370 90 range;
#X obj 493 70 hsl 100 15 0 127 0 0 empty kontrol_knob_5 empty -2 -10 0 12 #e3c6ff #9c00ff #000000 0 1;
#X obj 493 120 hsl 100 15 0 127 0 0 empty empty empty -2 -10 0 12 #e3c6ff #9c00ff #000000 0 1;
#X obj 490 90 range;
#X obj 613 70 hsl 100 15 0 127 0 0 empty kontrol_knob_6 empty -2 -10 0 12 #e3c6ff #9c00ff #000000 0 1;
#X obj 613 120 hsl 100 15 0 127 0 0 empty empty empty -2 -10 0 12 #e3c6ff #9c00ff #000000 0 1;
#X obj 610 90 range;
#X obj 733 70 hsl 100 15 0 127 0 0 empty kontrol_knob_7 empty -2 -10 0 12 #e3c6ff #9c00ff #000000 0 1;
#X obj 733 120 hsl 100 15 0 127 0 0 empty empty empty -2 -10 0 12 #e3c6ff #9c00ff #000000 0 1;
#X obj 730 90 range;
#X obj 853 70 hsl 100 15 0 127 0 0 empty kontrol_knob_8 empty -2 -10 0 12 #e3c6ff #9c00ff #000000 0 1;
#X obj 853 120 hsl 100 15 0 127 0 0 empty empty empty -2 -10 0 12 #e3c6ff #9c00ff #000000 0 1;
#X obj 850 90 range;
#X obj 973 70 hsl 100 15 0 127 0 0 empty kontrol_knob_9 empty -2 -10 0 12 #e3c6ff #9c00ff #000000 0 1;
#X obj 973 120 hsl 100 15 0 127 0 0 empty empty empty -2 -10 0 12 #e3c6ff #9c00ff #000000 0 1;
#X obj 970 90 range;
#X connect 0 0 3 0;
#X connect 3 0 2 0;
#X connect 5 0 7 0;
#X connect 7 0 6 0;
#X connect 8 0 10 0;
#X connect 10 0 9 0;
#X connect 11 0 13 0;
#X connect 13 0 12 0;
#X connect 14 0 16 0;
#X connect 16 0 15 0;
#X connect 17 0 19 0;
#X connect 19 0 18 0;
#X connect 20 0 22 0;
#X connect 22 0 21 0;
#X connect 23 0 25 0;
#X connect 25 0 24 0;
#X connect 26 0 28 0;
#X connect 28 0 27 0;
